<svg xmlns="http://www.w3.org/2000/svg" width="32" height="32" viewBox="0 0 8.467 8.467"><g transform="translate(-51.594 -16.934)"><path fill="#d2e8ff" d="m 203.81445,73.873047 c -1.64501,0 -3.00586,1.36085 -3.00586,3.005859 0,0.03535 0.009,0.06845 0.01,0.103516 0.0618,0.0039 0.12087,0.01758 0.18359,0.01758 v 0.898438 c 0.42421,1.146455 1.52642,1.976562 2.8125,1.976562 v 13.996094 c 0,0.03873 0.0102,0.07488 0.0117,0.113281 0.0579,0.0034 0.11314,0.01758 0.17188,0.01758 h 14.0039 c 1.64501,0 2.9961,-1.36085 2.9961,-3.005859 V 77 c 1.64501,8e-6 3.00586,-1.351081 3.00586,-2.996094 0,-0.03806 -0.0103,-0.07359 -0.0117,-0.111328 -0.0613,-0.0038 -0.11953,-0.01953 -0.18164,-0.01953 z" color="#000" font-family="sans-serif" font-weight="400" overflow="visible" paint-order="markers fill stroke" transform="scale(.26458)" style="line-height:normal;font-variant-ligatures:normal;font-variant-position:normal;font-variant-caps:normal;font-variant-numeric:normal;font-variant-alternates:normal;font-feature-settings:normal;text-indent:0;text-align:start;text-decoration-line:none;text-decoration-style:solid;text-decoration-color:#000;text-transform:none;text-orientation:mixed;shape-padding:0;isolation:auto;mix-blend-mode:normal"/><path fill="#2a57fe" d="m 55.033333,17.463017 c -0.435243,-2e-6 -0.793234,0.357474 -0.793234,0.792716 V 18.7849 h -1.058334 c -0.435242,0 -0.7953,0.360058 -0.7953,0.7953 0,0.435243 0.360058,0.792716 0.7953,0.792716 v 3.703134 c 0,0.435242 0.357476,0.7953 0.792718,0.7953 h 3.705199 c 0.435242,0 0.792718,-0.360058 0.792718,-0.7953 v -3.703134 c 0.435242,0 0.7953,-0.357473 0.7953,-0.792716 0,-0.435242 -0.360058,-0.7953 -0.7953,-0.7953 h -1.058333 v -0.529167 c 0,-0.435241 -0.357476,-0.792716 -0.792718,-0.792716 z m 0,0.529166 h 1.588016 c 0.149259,0 0.263548,0.114291 0.263551,0.26355 V 18.7849 h -2.115116 v -0.529167 c 0,-0.149259 0.114289,-0.263551 0.263549,-0.26355 z m -1.851568,1.3224 H 58.4724 c 0.149259,0 0.266134,0.116358 0.266134,0.265617 0,0.14926 -0.116875,0.26355 -0.266134,0.26355 h -0.263551 -4.763532 -0.263552 c -0.149259,0 -0.265615,-0.11429 -0.265615,-0.26355 0,-0.149259 0.116356,-0.265617 0.265615,-0.265617 z m 0.529167,1.058333 h 4.232301 v 3.703134 c 0,0.149259 -0.114292,0.265616 -0.263551,0.265616 h -3.705199 c -0.149259,0 -0.263551,-0.116357 -0.263551,-0.265616 z m 1.054716,0.7891 a 0.26460981,0.26460981 0 0 0 -0.261998,0.26975 v 2.117184 a 0.2648415,0.2648415 0 1 0 0.529683,0 v -2.117184 a 0.26460981,0.26460981 0 0 0 -0.267685,-0.26975 z m 1.056783,0 a 0.26460981,0.26460981 0 0 0 -0.259932,0.26975 v 2.117184 a 0.2646485,0.2646485 0 1 0 0.529167,0 v -2.117184 a 0.26460981,0.26460981 0 0 0 -0.269235,-0.26975 z m 1.058334,0 a 0.26460981,0.26460981 0 0 0 -0.259416,0.26975 v 2.117184 a 0.2646485,0.2646485 0 1 0 0.529166,0 v -2.117184 a 0.26460981,0.26460981 0 0 0 -0.26975,-0.26975 z" color="#000" font-family="sans-serif" font-weight="400" overflow="visible" paint-order="markers fill stroke" style="line-height:normal;font-variant-ligatures:normal;font-variant-position:normal;font-variant-caps:normal;font-variant-numeric:normal;font-variant-alternates:normal;font-feature-settings:normal;text-indent:0;text-align:start;text-decoration-line:none;text-decoration-style:solid;text-decoration-color:#000;text-transform:none;text-orientation:mixed;shape-padding:0;isolation:auto;mix-blend-mode:normal"/></g></svg>